<svg xmlns="http://www.w3.org/2000/svg" version="1.1" xmlns:xlink="http://www.w3.org/1999/xlink" width="512" height="512" x="0" y="0" viewBox="0 0 64 64" style="enable-background:new 0 0 512 512" xml:space="preserve" class=""><g><g data-name="Artboard 01"><path d="M4.794 44.175a1 1 0 0 0 .82-.426L7.819 40.6a1 1 0 0 0-1.638-1.148l-2.2 3.15a1 1 0 0 0 .818 1.574ZM9.488 37.469a1 1 0 0 0 .821-.427 12.064 12.064 0 0 1 3.951-3.578.694.694 0 0 0 .052-.03l.056-.038 3.671-2.578a1 1 0 1 0-1.15-1.636l-3.641 2.557A14.085 14.085 0 0 0 8.67 35.9a1 1 0 0 0 .818 1.574ZM42 31a10 10 0 1 0-10-10 10.011 10.011 0 0 0 10 10Zm0-18a8 8 0 1 1-8 8 8.009 8.009 0 0 1 8-8Z" fill="#25bdc7" opacity="1" data-original="#000000" class=""></path><path d="M40.293 25.707A1 1 0 0 0 41 26h.039a1 1 0 0 0 .72-.348l6-7a1 1 0 0 0-1.518-1.3l-5.3 6.18-2.236-2.236a1 1 0 0 0-1.414 1.414ZM52 33H32a1 1 0 0 0 0 2h20a1 1 0 0 0 0-2ZM48 37H36a1 1 0 0 0 0 2h12a1 1 0 0 0 0-2Z" fill="#25bdc7" opacity="1" data-original="#000000" class=""></path><path d="M58 1H30a5.006 5.006 0 0 0-5 5v24h-.981a4.2 4.2 0 0 0-2.427.767l-6.219 4.368a10.016 10.016 0 0 0-3.426 3.054L7.252 44.9a3.644 3.644 0 0 1-2.281 1.49l-3.171.63A1 1 0 0 0 1 48v14a1 1 0 0 0 1 1h18.464a7.387 7.387 0 0 0 5.07-2l.284-.266A5.007 5.007 0 0 0 30 63h28a5.006 5.006 0 0 0 5-5V6a5.006 5.006 0 0 0-5-5Zm-9.281 2-.5 2H35.781l-.5-2ZM23.188 49.838a.722.722 0 0 1-1.188-.55v-7.432a.5.5 0 0 1 .256-.431L25 39.77v8.535ZM20.464 61H3V48.82l2.363-.473a5.631 5.631 0 0 0 3.528-2.3l4.694-6.706a8.026 8.026 0 0 1 2.784-2.466 1.132 1.132 0 0 0 .105-.064l6.267-4.4a2.216 2.216 0 0 1 1.278-.4H25v5.435l-3.765 2.27A2.5 2.5 0 0 0 20 41.856v7.432a2.722 2.722 0 0 0 4.48 2.077l9.19-7.776A2.492 2.492 0 0 1 35.278 43h.233a2.481 2.481 0 0 1 1.758 4.24.983.983 0 0 0-.139.142L24.166 59.536A5.4 5.4 0 0 1 20.464 61Zm18.779-18H49v4h-9.285a4.347 4.347 0 0 0-.472-4ZM27.314 59.327 38.329 49H49a2 2 0 0 0 2-2v-4a2 2 0 0 0-2-2H35.278a4.488 4.488 0 0 0-2.9 1.063L27 46.613V6a3 3 0 0 1 3-3h3.219l.811 3.243A1 1 0 0 0 35 7h14a1 1 0 0 0 .97-.757L50.781 3H54a3 3 0 0 1 3 3v52a3 3 0 0 1-3 3H30a3 3 0 0 1-2.686-1.673ZM61 58a3 3 0 0 1-3 3h-.026A4.948 4.948 0 0 0 59 58V6a4.948 4.948 0 0 0-1.026-3H58a3 3 0 0 1 3 3Z" fill="#25bdc7" opacity="1" data-original="#000000" class=""></path></g></g></svg>