<svg xmlns="http://www.w3.org/2000/svg" version="1.1" xmlns:xlink="http://www.w3.org/1999/xlink" width="512" height="512" x="0" y="0" viewBox="0 0 100 100" style="enable-background:new 0 0 512 512" xml:space="preserve" class=""><g><path d="M42.786 44.944c-8.745-3.056-14.62-11.338-14.62-20.61C28.166 12.295 37.96 2.5 50 2.5s21.834 9.795 21.834 21.835c0 8.106-4.45 15.496-11.613 19.285l-1.673-3.162a18.198 18.198 0 0 0 9.709-16.123c0-10.067-8.19-18.257-18.257-18.257s-18.257 8.19-18.257 18.257c0 7.752 4.912 14.677 12.223 17.232z" fill="#25bdc7" opacity="1" data-original="#000000" class=""></path><path d="M51.755 34.928a6.03 6.03 0 0 1-.868-.063l-6.264-.908.514-3.54 6.263.907a2.458 2.458 0 0 0 2.775-2.073 2.434 2.434 0 0 0-.461-1.817 2.435 2.435 0 0 0-1.611-.958l-4.738-.74a5.973 5.973 0 0 1-3.945-2.356 5.986 5.986 0 0 1-1.136-4.47 5.985 5.985 0 0 1 2.358-3.965 5.997 5.997 0 0 1 4.471-1.135l6.264.908-.514 3.54-6.263-.908a2.429 2.429 0 0 0-1.817.462c-.524.391-.864.963-.958 1.61s.07 1.294.461 1.818c.392.524.964.864 1.611.958l4.738.74c1.574.228 2.982 1.066 3.945 2.356s1.367 2.877 1.136 4.47a6.036 6.036 0 0 1-5.961 5.164z" fill="#25bdc7" opacity="1" data-original="#000000" class=""></path><path d="M48.211 11.561h3.578v4.141h-3.578zM48.211 33.04h3.578v4.074h-3.578zM90.248 67.947l-2.56-.543L70.9 39.482l.618-2.459 23.564-14.041 1.832 3.073-22.022 13.123 14.872 24.738 4.642-3.255 2.055 2.928zM9.753 67.948l-6.215-4.359 2.055-2.928 4.643 3.256 14.871-24.74L3.085 26.057l1.832-3.074L28.48 37.023l.618 2.46-16.786 27.922z" fill="#25bdc7" opacity="1" data-original="#000000" class=""></path><path d="M76.505 80.1c-.983 0-1.96-.251-2.825-.724l-14.48-7.85 1.704-3.145 14.488 7.853c.962.526 2.196.28 2.886-.533.702-.83.738-2.061.084-2.926a2.683 2.683 0 0 0-.355-.369L65.651 61.972l-12.42-7.707a3.733 3.733 0 0 0-3.047-.398l-3.918 1.191-4.22 4.634c-2.22 2.44-5.861 3.356-8.997 2.232a5.022 5.022 0 0 1-3.019-2.98 5.035 5.035 0 0 1 .331-4.241l6.09-10.805 1.01-.826c5.928-1.915 11.915-3.13 18.303-3.71l.614.05L69.755 42.9l4.63-1.738 1.258 3.35-5.162 1.937-1.08.056-13.622-3.552c-5.767.545-11.193 1.63-16.554 3.312L33.478 56.46a1.45 1.45 0 0 0-.096 1.234c.088.236.32.664.874.862 1.806.65 3.878.119 5.144-1.273l4.552-4.998.802-.507 4.396-1.336a7.335 7.335 0 0 1 5.965.781l12.744 7.931 12.454 10.517c.308.258.596.559.878.915 1.678 2.217 1.592 5.328-.181 7.426a5.893 5.893 0 0 1-4.505 2.087z" fill="#25bdc7" opacity="1" data-original="#000000" class=""></path><path d="m80.843 73.14-2.11-2.888a38.36 38.36 0 0 0 7.597-7.337l2.818 2.204a41.968 41.968 0 0 1-8.305 8.022zM70.763 86.665a5.873 5.873 0 0 1-2.778-.709l-13.75-7.407 1.698-3.15 13.751 7.408a2.278 2.278 0 0 0 2.8-.511 2.248 2.248 0 0 0 .541-1.681 2.247 2.247 0 0 0-.831-1.563L70.3 77.508l2.261-2.773 1.889 1.54a5.793 5.793 0 0 1 2.139 4.024 5.8 5.8 0 0 1-1.404 4.344 5.87 5.87 0 0 1-4.422 2.022z" fill="#25bdc7" opacity="1" data-original="#000000" class=""></path><path d="M65.278 92.683a5.613 5.613 0 0 1-2.321-.51L49.68 86.003l1.507-3.244 13.269 6.164c.763.35 1.71.155 2.255-.446a1.935 1.935 0 0 0-.067-2.695l-1.177-1.166 2.517-2.542 1.174 1.163a5.496 5.496 0 0 1 .2 7.648 5.514 5.514 0 0 1-4.08 1.797z" fill="#25bdc7" opacity="1" data-original="#000000" class=""></path><path d="M57.394 97.119a6.34 6.34 0 0 1-1.975-.317c-3.404-1.103-7.141-2.534-11.422-4.375l1.412-3.286c4.18 1.796 7.816 3.19 11.118 4.26 1.227.4 2.563-.1 3.252-1.215l.237-.371a2.74 2.74 0 0 0 .39-1.775l3.554-.411a6.38 6.38 0 0 1-.919 4.097l-.232.364a6.366 6.366 0 0 1-5.415 3.029zM37.1 47.373C31.518 46 27.157 44.05 25.054 43.008l1.587-3.207c1.972.976 6.063 2.807 11.313 4.098zM15.948 73.503c-2.013-2.235-4.174-5.493-5.631-7.833l3.036-1.893c1.131 1.816 3.318 5.183 5.254 7.332z" fill="#25bdc7" opacity="1" data-original="#000000" class=""></path><path d="M19.435 82.005c-1.972 0-3.874-1.01-4.862-2.79l-.067-.136c-.661-1.212-.785-2.78-.308-4.241a14.552 14.552 0 0 1 1.837-3.666c.805-1.195 1.852-2.384 3.102-3.517a5.613 5.613 0 0 1 4-1.474c1.56.048 3.04.747 4.062 1.917a5.672 5.672 0 0 1 1.117 5.405l-3.41-1.084c.216-.68.06-1.436-.405-1.973a2.022 2.022 0 0 0-1.474-.69 2.065 2.065 0 0 0-1.49.552c-1.033.937-1.89 1.906-2.545 2.879a10.985 10.985 0 0 0-1.396 2.77c-.167.513-.137 1.067.085 1.474l.06.122c.528.947 1.829 1.086 2.706.625l1.66 3.17a5.76 5.76 0 0 1-2.672.657zM39.055 97.5c-.17 0-.341-.007-.512-.022-1.789-.16-3.33-1.12-4.23-2.633l.017-.01-.046-.068-.015.008c-.726-1.24-.895-2.803-.465-4.287a14.327 14.327 0 0 1 1.551-3.443l3.046 1.879c-.512.83-.904 1.695-1.164 2.572-.155.535-.112 1.076.12 1.474l.032.048c.418.703 1.101.863 1.472.896.7.063 1.392-.213 1.846-.738.995-1.14 1.823-2.346 2.502-3.377.299-.457.6-.927.903-1.398l.073-.114a2.046 2.046 0 0 0-.22-2.492c-.77-.836-2.153-.854-2.963-.063a4.363 4.363 0 0 0-.26.257l-2.635-2.42c.14-.152.281-.293.434-.434a5.614 5.614 0 0 1 3.925-1.578c1.566 0 3.07.659 4.125 1.809 1.736 1.864 1.99 4.684.607 6.85l-.075.118c-.307.479-.615.958-.923 1.428-.749 1.136-1.663 2.467-2.793 3.761a5.766 5.766 0 0 1-4.352 1.977z" fill="#25bdc7" opacity="1" data-original="#000000" class=""></path><path d="M24.27 87.53c-.413 0-.82-.04-1.22-.121-1.753-.36-3.13-1.5-3.78-3.132l-.03-.085-.004.001c-.688-1.78-.499-3.808.495-5.291 1.652-2.47 3.602-4.807 5.487-7.068.442-.53.883-1.058 1.319-1.587a6.187 6.187 0 0 1 4.357-2.254c1.672-.123 3.3.405 4.463 1.453.28.254.52.52.73.813 1.606 2.214 1.35 5.537-.629 8.076l-.065.083c-1.743 2.238-3.545 4.551-5.698 6.723h-.001c-1.52 1.53-3.513 2.39-5.424 2.39zm-1.696-4.623.021.048c.207.519.59.829 1.173.949 1.069.212 2.396-.287 3.387-1.283 2.002-2.02 3.66-4.148 5.416-6.4l.065-.085c.989-1.268 1.22-2.86.551-3.783a1.55 1.55 0 0 0-.226-.25c-.428-.386-1.123-.593-1.802-.543a2.608 2.608 0 0 0-1.86.962c-.441.534-.887 1.068-1.333 1.604-1.826 2.19-3.714 4.452-5.262 6.766-.398.594-.353 1.439-.13 2.012z" fill="#25bdc7" opacity="1" data-original="#000000" class=""></path><path d="M30.863 93.846c-.385 0-.768-.035-1.144-.106-1.806-.345-3.251-1.487-3.967-3.135l-.032-.083-.003.002c-.616-1.453-.553-3.238.17-4.898 1.314-3.049 3.481-5.845 6.621-8.541 2.545-2.187 6.142-2.325 8.367-.319.278.25.513.507.72.787 1.64 2.19 1.494 5.406-.36 7.817-1.66 2.157-3.32 4.315-5.33 6.326l-.002.001c-1.378 1.376-3.231 2.15-5.04 2.15zm-1.85-4.708.022.044c.307.707.906.957 1.354 1.043.996.188 2.141-.217 2.986-1.06 1.846-1.847 3.363-3.819 4.97-5.906.933-1.214 1.068-2.651.382-3.567a1.735 1.735 0 0 0-.25-.27c-.888-.8-2.454-.641-3.637.377-2.72 2.334-4.574 4.706-5.671 7.25-.33.759-.389 1.535-.158 2.08z" fill="#25bdc7" opacity="1" data-original="#000000" class=""></path></g></svg>