<svg xmlns="http://www.w3.org/2000/svg" version="1.1" xmlns:xlink="http://www.w3.org/1999/xlink" width="512" height="512" x="0" y="0" viewBox="0 0 512 512" style="enable-background:new 0 0 512 512" xml:space="preserve" class=""><g><path d="m240.549 104.241-31.17 47.55c-2.09 3.2.2 7.45 4.03 7.45h16.11c3.06 0 6.03-.97 8.51-2.77l71.94-52.23M226.779 55.401l-17.4-26.55c-2.09-3.2.2-7.45 4.03-7.45h16.11c3.06 0 6.03.97 8.51 2.76l43.02 31.24" style="stroke-width:15;stroke-linecap:round;stroke-linejoin:round;stroke-miterlimit:10;" fill="none" stroke="#25bdc7" stroke-width="15" stroke-linecap="round" stroke-linejoin="round" stroke-miterlimit="10" data-original="#000000" class="" opacity="1"></path><path d="M347.787 63.188c3.4 3.241 7.622 5.458 12.251 6.255 12.085 2.082 20.951 8.938 20.951 17.074 0 9.788-12.832 17.723-28.661 17.723H213.82c-4.96 0-9.88-.889-14.526-2.626l-43.719-16.341a16.006 16.006 0 0 1-9.329-9.231l-14.914-38.653c-1.206-3.127 1.101-6.49 4.452-6.49h18.147c1.838 0 3.584.805 4.778 2.204l15.721 18.421a11.04 11.04 0 0 0 8.4 3.874h145.491a28.199 28.199 0 0 1 19.466 7.79zM79.909 216.081c-22.59-19.65-54.69-17.06-70.28-6.82-2.85 1.88-2.84 6.05.04 7.88l40.38 25.6M102.289 397.181c-21.38-35.01-29.36-73.73-23.55-116.53M144.389 368.811c-18.08-18.88-31.86-48.67-31.22-87.09M247.469 339.251v-95.78M281.529 339.251v-95.78M283.222 195.294h-81.355c-3.179 0-5.868 2.689-5.868 6.006v36.163a6.006 6.006 0 0 0 6.006 6.006h125.481c2.65 0 5.233-.834 7.383-2.384l22.816-16.448c3.587-2.586 3.587-7.925 0-10.511l-22.816-16.448c-2.15-1.55-4.733-2.384-7.522-2.384h-9.126" style="stroke-width:15;stroke-linecap:round;stroke-linejoin:round;stroke-miterlimit:10;" fill="none" stroke="#25bdc7" stroke-width="15" stroke-linecap="round" stroke-linejoin="round" stroke-miterlimit="10" data-original="#000000" class="" opacity="1"></path><path d="M53.528 451.07a254.118 254.118 0 0 0-15.558 26.404c-3.065 6.002 1.313 13.126 8.052 13.126H482.98c6.739 0 11.116-7.124 8.052-13.126-42.058-82.37-127.697-138.778-226.531-138.778-75.307 0-142.953 32.749-189.497 84.778" style="stroke-width:15;stroke-linecap:round;stroke-linejoin:round;stroke-miterlimit:10;" fill="none" stroke="#25bdc7" stroke-width="15" stroke-linecap="round" stroke-linejoin="round" stroke-miterlimit="10" data-original="#000000" class="" opacity="1"></path><path d="M188.275 350.334c1.157 9.551 5.555 18.622 12.814 25.501l10.189 9.656a15.278 15.278 0 0 1 4.521 13.83l-5.176 28.395a7.479 7.479 0 0 0 4.987 8.434l13.401 4.477a7.478 7.478 0 0 0 8.813-3.298l20.136-34.187a15.28 15.28 0 0 1 11.87-7.47l52.054-4.43a16.843 16.843 0 0 0 14.399-11.024l10.186-28.004M435.751 405.062h-45.05c-10.603 0-19.198 8.595-19.198 19.198v14.464c0 5.268-3.714 9.805-8.877 10.846l-46.722 9.423a17.37 17.37 0 0 0-13.776 14.669l-2.322 16.939M502.663 270.715c-7.731-28.853-37.608-45.864-66.442-37.625-28.231 8.067-44.352 37.816-36.753 66.176l11.829 44.145a6.962 6.962 0 0 0 8.527 4.923l44.985-12.054c28.562-7.653 45.504-37.015 37.854-65.565zm-46.815 32.12c-10.091 2.704-20.463-3.284-23.167-13.375s3.284-20.463 13.375-23.167c10.091-2.704 20.463 3.284 23.167 13.375s-3.284 20.463-13.375 23.167zM115.488 245.422s30.762-23.967 44.788-35.169c2.306-1.842 2.373-5.366.089-7.235-31.365-25.664-83.592-6.153-88.52 34.865-45.367 2.599-54.503 39.99-49.013 73.463.554 3.378 4.462 5.011 7.274 3.059L93.067 270.7l69.857 38.319c3.132 1.718 6.99-.577 6.917-4.148-.811-39.736-21.818-62.681-54.353-59.449z" style="stroke-width:15;stroke-linecap:round;stroke-linejoin:round;stroke-miterlimit:10;" fill="none" stroke="#25bdc7" stroke-width="15" stroke-linecap="round" stroke-linejoin="round" stroke-miterlimit="10" data-original="#000000" class="" opacity="1"></path></g></svg>