<svg xmlns="http://www.w3.org/2000/svg" version="1.1" xmlns:xlink="http://www.w3.org/1999/xlink" width="512" height="512" x="0" y="0" viewBox="0 0 479.992 479.992" style="enable-background:new 0 0 512 512" xml:space="preserve" class=""><g><path d="M407.996 255.992h-74a8 8 0 0 0-8 8v200h-42v-83a8 8 0 0 0-8-8h-72a8 8 0 0 0-8 8v83h-42v-290c0-8.822 7.178-16 16-16h140c8.822 0 16 7.178 16 16v44.5a8 8 0 0 0 16 0v-44.5c0-17.645-14.355-32-32-32h-140c-17.645 0-32 14.355-32 32v290h-66c-8.822 0-16-7.178-16-16v-160c0-8.822 7.178-16 16-16h28a8 8 0 0 0 0-16h-28c-17.645 0-32 14.355-32 32v160c0 17.645 14.355 32 32 32h262a8 8 0 0 0 8-8v-200h66c8.822 0 16 7.178 16 16v160c0 8.822-7.178 16-16 16h-34a8 8 0 0 0 0 16h34c17.645 0 32-14.355 32-32v-160c0-17.645-14.355-32-32-32zm-196 133h56v75h-56zm-5.162-318.351-5.094 29.804c-1.115 6.526 5.759 11.513 11.619 8.423l26.637-14.054 26.637 14.054c5.854 3.09 12.734-1.894 11.619-8.423l-5.094-29.804 21.572-21.102c4.723-4.62 2.105-12.681-4.44-13.635l-29.788-4.344-13.327-27.098c-2.925-5.949-11.432-5.949-14.357 0L219.491 31.56l-29.788 4.344c-6.538.952-9.168 9.01-4.44 13.635zm19.132-23.856a7.999 7.999 0 0 0 6.024-4.386l8.006-16.279 8.006 16.279a8 8 0 0 0 6.024 4.386l17.96 2.62-13.015 12.731a8.002 8.002 0 0 0-2.292 7.066l3.066 17.942c-17.557-9.263-17.141-9.375-19.75-9.375-2.641 0-2.404.223-19.75 9.375l3.066-17.942a7.998 7.998 0 0 0-2.292-7.066l-13.015-12.731zM118.329 72.87c1.816-5.588 6.915-5.511 11.99-6.249 2.287-4.635 3.768-9.472 9.647-9.472 5.875 0 7.378 4.873 9.648 9.472l5.532.804c6.548.952 9.175 9.024 4.434 13.646l-4.003 3.902c.873 5.094 2.519 9.879-2.238 13.334-4.753 3.454-8.833.394-13.373-1.993-4.574 2.405-8.616 5.449-13.373 1.993-4.754-3.453-3.105-8.279-2.238-13.334-3.697-3.606-7.843-6.512-6.026-12.103zm-70 40c1.816-5.588 6.915-5.511 11.99-6.249l2.474-5.013c2.929-5.933 11.417-5.938 14.348 0l2.474 5.013c5.114.743 10.173.657 11.99 6.249 1.816 5.588-2.355 8.523-6.027 12.103l.945 5.51c.841 4.902-2.947 9.352-7.886 9.352-2.466 0-3.441-.771-8.669-3.521l-4.947 2.602c-5.857 3.078-12.727-1.906-11.608-8.433l.945-5.51c-3.7-3.606-7.846-6.512-6.029-12.103zm270.059-40c1.816-5.588 6.915-5.511 11.99-6.249l2.474-5.013c2.929-5.934 11.417-5.937 14.348 0l2.474 5.013c5.112.743 10.174.657 11.99 6.249 1.816 5.588-2.355 8.523-6.027 12.103l.945 5.51c.841 4.902-2.947 9.352-7.886 9.352-2.466 0-3.441-.771-8.669-3.521l-4.947 2.602c-5.857 3.078-12.727-1.906-11.608-8.433l.945-5.51c-3.701-3.606-7.846-6.512-6.029-12.103zm70 40c1.816-5.588 6.915-5.511 11.99-6.249l2.474-5.013c2.929-5.934 11.417-5.937 14.348 0l2.474 5.013c5.112.743 10.174.657 11.99 6.249 1.816 5.588-2.355 8.523-6.027 12.103l.945 5.51c.841 4.902-2.947 9.352-7.886 9.352-2.466 0-3.441-.771-8.669-3.521l-4.947 2.602c-5.857 3.078-12.727-1.906-11.608-8.433l.945-5.51c-3.701-3.606-7.846-6.512-6.029-12.103zM96.996 327.992a8 8 0 0 1 8 8v34a8 8 0 0 1-16 0v-34a8 8 0 0 1 8-8zm286 50a8 8 0 0 1-8-8v-34a8 8 0 0 1 16 0v34a8 8 0 0 1-8 8zm-97-139h-92a8 8 0 0 1 0-16h92a8 8 0 0 1 0 16zm-14 61a8 8 0 0 1 0 16h-64a8 8 0 0 1 0-16z" fill="#25bdc7" opacity="1" data-original="#000000"></path></g></svg>