<svg xmlns="http://www.w3.org/2000/svg" version="1.1" xmlns:xlink="http://www.w3.org/1999/xlink" width="512" height="512" x="0" y="0" viewBox="0 0 512 512" style="enable-background:new 0 0 512 512" xml:space="preserve" class=""><g><path d="M449.023.727c-4.422 0-8 3.582-8 8v37.191H137.547c-4.422 0-8 3.582-8 8s3.578 8 8 8h75.039l25.96 25.96v20.017l-22.382 22.382h-45.71c-4.423 0-8 3.582-8 8v27.356l-18.79 18.789h-14.75v-27.23a7.998 7.998 0 0 0-13.656-5.656L85.43 181.366a7.994 7.994 0 0 0-2.344 5.656v56.282c0 4.421 3.578 8 8 8h28.36l20.867 20.867v20.062l-16.204 16.211h-18.796a8.008 8.008 0 0 0-5.657 2.344l-16.765 16.758a7.994 7.994 0 0 0-2.344 5.656v11.945l-9.563 9.563V121.719c0-4.418-3.578-8-8-8H41.9C27.617 113.719 16 102.102 16 87.82S27.617 61.918 41.9 61.918h44.789c4.422 0 8-3.582 8-8s-3.578-8-8-8h-44.79C18.798 45.918 0 64.715 0 87.82v70.23a8.001 8.001 0 1 0 16 0v-37.316a41.696 41.696 0 0 0 25.898 8.985h13.086v364.875C32.874 490.78 16 471.477 16 448.297V198.734c0-4.422-3.578-8-8-8s-8 3.578-8 8v249.563c0 34.726 28.258 62.976 62.984 62.976 4.422 0 8-3.578 8-8v-37.187h399.118c23.101 0 41.898-18.797 41.898-41.898V63.71C512 28.98 483.75.727 449.023.727zm-8 101.55h-45.968c-4.422 0-8 3.582-8 8v18.672l-12.836 12.832h-5.649l-10.25-10.246v-15.039a8 8 0 0 0-2.343-5.656l-13.75-13.754a7.994 7.994 0 0 0-5.657-2.344h-13.718l-18.375-18.375 5.275-14.45h131.271zm29.079 347.809H70.984v-72.75l23.22-23.219a7.994 7.994 0 0 0 2.343-5.656v-11.945l12.078-12.07h18.797a7.994 7.994 0 0 0 5.656-2.344l20.89-20.899a7.994 7.994 0 0 0 2.345-5.656v-26.688a7.994 7.994 0 0 0-2.344-5.656l-25.555-25.554a7.994 7.994 0 0 0-5.656-2.344H99.086v-44.97l13.828-13.827v15.914c0 4.422 3.578 8 8 8h26.063a7.994 7.994 0 0 0 5.656-2.344l23.476-23.476a7.994 7.994 0 0 0 2.344-5.657v-22.668h41.024a7.994 7.994 0 0 0 5.656-2.343l27.07-27.07a8.001 8.001 0 0 0 2.344-5.657v-26.64a8 8 0 0 0-2.344-5.657l-16.992-16.992h57.507l-5.023 13.758a7.986 7.986 0 0 0 1.86 8.398l24.328 24.324a7.994 7.994 0 0 0 5.656 2.344h13.719l9.062 9.067v15.039a8 8 0 0 0 2.344 5.656l14.938 14.934a7.994 7.994 0 0 0 5.656 2.343h12.273a7.994 7.994 0 0 0 5.656-2.343l17.524-17.52a8.001 8.001 0 0 0 2.344-5.656v-13.985h37.968v82.942c0 4.422 3.578 8 8 8s8-3.578 8-8V17.406C479.125 21.22 496 40.531 496 63.711v327.555a41.696 41.696 0 0 0-25.898-8.985h-13.079v-141.11c0-4.421-3.578-8-8-8s-8 3.579-8 8v149.11c0 4.422 3.579 8 8 8h21.079c14.28 0 25.898 11.625 25.898 25.906s-11.617 25.899-25.898 25.899zm-49.946-68.836a8.01 8.01 0 0 0-7.226-4.57h-16.305l-13.442-13.442 20.887-20.886c22.211-22.211 22.211-58.36 0-80.57-22.21-22.22-58.344-22.22-80.57 0-22.211 22.21-22.211 58.359 0 80.57l3.804 3.804h-7.835a7.994 7.994 0 0 0-5.657 2.344l-21.914 21.914h-26.633c-4.421 0-8 3.578-8 8v23.336c0 4.422 3.579 8 8 8h19.665l11.734 11.727a8.008 8.008 0 0 0 5.656 2.344h31.367l11.47 11.468a7.994 7.994 0 0 0 5.655 2.344h56.664c2.04 0 4-.781 5.485-2.172l18.523-17.43a8.007 8.007 0 0 0 1.742-9.257l-13.07-27.524zm-85.344-108.156c7.985-7.985 18.477-11.985 28.977-11.985 10.492 0 20.984 4 28.969 11.985 15.976 15.976 15.976 41.969 0 57.945l-28.977 28.977-28.969-28.977c-15.976-15.976-15.976-41.969 0-57.945zm69.493 148.539h-50.18l-11.469-11.469A7.994 7.994 0 0 0 337 407.82h-31.367l-11.735-11.726a8.008 8.008 0 0 0-5.656-2.344h-14.976v-7.336h21.945a7.994 7.994 0 0 0 5.656-2.344l21.914-21.914h20.52l14.824 14.828a7.994 7.994 0 0 0 11.312 0l2.434-2.433 15.785 15.785a7.994 7.994 0 0 0 5.656 2.344h14.563l8.398 17.687-11.969 11.266zm-143.32-103.766c-1.563 1.563-3.61 2.344-5.657 2.344s-4.094-.781-5.656-2.344l-12.493-12.491-40.327 13.405a8.013 8.013 0 0 1-10.117-5.07 8.005 8.005 0 0 1 5.07-10.117l32.715-10.874-18.765-18.763-13.286 2.902a8.15 8.15 0 0 1-1.719.188c-3.68 0-6.992-2.555-7.805-6.29-.945-4.32 1.79-8.585 6.102-9.523l12.555-2.742 2.75-12.555c.937-4.328 5.187-7.046 9.523-6.101a7.997 7.997 0 0 1 6.102 9.523l-2.909 13.287 18.764 18.76 10.88-32.719c1.397-4.195 5.937-6.453 10.116-5.07a8.005 8.005 0 0 1 5.07 10.117l-13.41 40.327 12.496 12.494a7.997 7.997 0 0 1 0 11.312zm102.796 2.344c12.68 0 23-10.313 23-22.992s-10.32-22.992-23-22.992-22.992 10.312-22.992 22.992 10.312 22.992 22.992 22.992zm0-29.984c3.86 0 7 3.132 7 6.992s-3.14 6.992-7 6.992-6.992-3.133-6.992-6.992 3.133-6.992 6.992-6.992z" fill="#25bdc7" opacity="1" data-original="#000000" class=""></path></g></svg>