<svg xmlns="http://www.w3.org/2000/svg" version="1.1" xmlns:xlink="http://www.w3.org/1999/xlink" width="512" height="512" x="0" y="0" viewBox="0 0 512 512" style="enable-background:new 0 0 512 512" xml:space="preserve" class=""><g><path d="M453.12 292.2a66.855 66.855 0 0 0-23.85-8.265V228.1a67.212 67.212 0 1 0-62.435-108.182L318.44 91.972a67.2 67.2 0 1 0-124.871.016l-48.4 27.936A67.171 67.171 0 0 0 34.29 128a67.264 67.264 0 0 0 48.441 100.1v55.8A67.246 67.246 0 0 0 34.287 384a67.164 67.164 0 0 0 104.475 15.1 7.062 7.062 0 0 0 .742-.694 66.424 66.424 0 0 0 5.669-6.339l48.394 27.94a67.011 67.011 0 0 0 15.142 72.483 7.035 7.035 0 0 0 1.2 1.147 67.023 67.023 0 0 0 92.213-.035 6.958 6.958 0 0 0 1.114-1.062 67.027 67.027 0 0 0 15.2-72.515l48.391-27.95a67.263 67.263 0 0 0 52.592 25.554 67.578 67.578 0 0 0 17.491-2.316A67.211 67.211 0 0 0 453.12 292.2zm-7-84.555a53.269 53.269 0 0 1-60.979-5.426 35.113 35.113 0 0 1 68.748-.041 53.756 53.756 0 0 1-7.77 5.466zm-38.988-59.815a12.388 12.388 0 1 1 12.387 12.416 12.4 12.4 0 0 1-12.388-12.417zm-14.214-32.291a52.888 52.888 0 0 1 26.528-7.16 53.453 53.453 0 0 1 13.845 1.834A52.808 52.808 0 0 1 465.583 135a52.828 52.828 0 0 1 5.307 40.35 53.4 53.4 0 0 1-6.289 14.5 49.037 49.037 0 0 0-24.738-25.212 26.39 26.39 0 1 0-40.691 0 49.051 49.051 0 0 0-24.723 25.18c-.338-.541-.677-1.081-1-1.636a53.238 53.238 0 0 1 19.468-72.644zM256.014 14a53.15 53.15 0 0 1 45.056 81.39 49.1 49.1 0 0 0-24.708-25.172 26.408 26.408 0 1 0-40.714 0 49.12 49.12 0 0 0-24.714 25.167A53.144 53.144 0 0 1 256.014 14zM243.6 53.434a12.4 12.4 0 1 1 12.416 12.387A12.429 12.429 0 0 1 243.6 53.434zm12.416 26.391a35.072 35.072 0 0 1 34.362 27.917 53.03 53.03 0 0 1-68.75-.006 35.1 35.1 0 0 1 34.386-27.911zM46.416 135a53.189 53.189 0 0 1 92.132 53.179c-.318.55-.654 1.084-.988 1.62a49.114 49.114 0 0 0-24.717-25.157 26.4 26.4 0 1 0-40.7-.009A49.052 49.052 0 0 0 47.4 189.849a53.365 53.365 0 0 1-6.289-14.5A52.823 52.823 0 0 1 46.416 135zm33.678 12.827a12.4 12.4 0 1 1 12.388 12.416 12.4 12.4 0 0 1-12.388-12.414zm-21.981 54.351a35.127 35.127 0 0 1 68.768.024 53.275 53.275 0 0 1-61 5.441 53.761 53.761 0 0 1-7.768-5.465zm7.794 102.15a53.18 53.18 0 0 1 71.648 74.288 49.119 49.119 0 0 0-24.713-25.152 26.4 26.4 0 1 0-40.707-.01 49.037 49.037 0 0 0-24.721 25.175c-.337-.538-.677-1.074-1-1.628a53.293 53.293 0 0 1 19.493-72.673zm14.187 32.319a12.4 12.4 0 1 1 12.388 12.415 12.4 12.4 0 0 1-12.388-12.415zm38.99 59.815a53.273 53.273 0 0 1-60.971-5.472 35.127 35.127 0 0 1 68.756-.021 53.326 53.326 0 0 1-7.785 5.493zm102.546 88.892a35.122 35.122 0 0 1 68.742.006 53.054 53.054 0 0 1-68.742-.006zm21.97-54.313a12.4 12.4 0 1 1 12.416 12.415 12.416 12.416 0 0 1-12.416-12.415zm57.469 41.98a49.107 49.107 0 0 0-24.712-25.166 26.408 26.408 0 1 0-40.7 0 49.12 49.12 0 0 0-24.718 25.161 53.191 53.191 0 1 1 90.13 0zm10.864-65.405a67.123 67.123 0 0 0-111.847-.016l-47.418-27.376a67.169 67.169 0 0 0-42.785-94.724 67.883 67.883 0 0 0-13.149-2.178v-54.651a67.89 67.89 0 0 0 13.143-2.174 66.773 66.773 0 0 0 29.471-16.734l.059-.059a67.222 67.222 0 0 0 13.255-77.936l47.419-27.368a67.746 67.746 0 0 0 8.745 10.589 7.044 7.044 0 0 0 .98.934 67 67 0 0 0 92.433-.035 7 7 0 0 0 .89-.848 67.657 67.657 0 0 0 8.8-10.652l47.412 27.377a67.24 67.24 0 0 0 55.924 96.91v54.7a67.14 67.14 0 0 0-55.928 96.864zm121.359-5.828a53.1 53.1 0 0 1-48.139-10.8 35.113 35.113 0 0 1 68.746.05 52.968 52.968 0 0 1-20.609 10.75zm-26.159-65.141a12.388 12.388 0 1 1 12.387 12.415 12.4 12.4 0 0 1-12.389-12.415zM465.583 377a46.84 46.84 0 0 1-1 1.632 49.034 49.034 0 0 0-24.723-25.179 26.39 26.39 0 1 0-40.693 0 49.05 49.05 0 0 0-24.72 25.173A53.19 53.19 0 1 1 465.583 377zM256.014 158.572A97.428 97.428 0 1 0 353.413 256a97.537 97.537 0 0 0-97.399-97.428zm22.732 177.676a82.838 82.838 0 0 1-15.73 2.86v-50.2h36.4a139.223 139.223 0 0 1-20.644 47.3c-.012.014-.018.028-.026.04zm-45.946-.135a138.5 138.5 0 0 1-20.177-47.2h36.389v50.2a82.84 82.84 0 0 1-16.212-3zM172.59 256a83.286 83.286 0 0 1 2.187-18.907h22.8a156.709 156.709 0 0 0-1.924 25.991c.048 3.968.272 7.908.638 11.823h-21.514A83.293 83.293 0 0 1 172.59 256zm39.183-18.907h37.239v37.814h-38.619a140.235 140.235 0 0 1 1.38-37.814zm37.239-64.2v50.2H214.77a213.9 213.9 0 0 1 19.123-47.513 82.891 82.891 0 0 1 15.119-2.688zM279 175.824a212.074 212.074 0 0 1 18.728 47.265h-34.712v-50.2A82.88 82.88 0 0 1 279 175.824zm-15.984 99.083v-37.814h37.607a139.729 139.729 0 0 1 1.127 37.814zm51.79-37.814h22.418a82.858 82.858 0 0 1 0 37.814h-21.383c.425-4.232.687-8.493.739-12.787a156.487 156.487 0 0 0-1.774-25.027zm17.828-14h-20.51a211.214 211.214 0 0 0-13.293-38.646 83.936 83.936 0 0 1 33.803 38.642zm-118.527-39.182a213.1 213.1 0 0 0-13.776 39.178h-20.962a83.929 83.929 0 0 1 34.738-39.178zm-34.738 105H198.3a147.436 147.436 0 0 0 12.646 37.237 83.927 83.927 0 0 1-31.577-37.237zm121.314 37.483a147.981 147.981 0 0 0 13.073-37.483h18.878a83.926 83.926 0 0 1-31.951 37.483z" fill="#25bdc7" opacity="1" data-original="#000000" class=""></path></g></svg>