<svg xmlns="http://www.w3.org/2000/svg" version="1.1" xmlns:xlink="http://www.w3.org/1999/xlink" width="512" height="512" x="0" y="0" viewBox="0 0 512 512" style="enable-background:new 0 0 512 512" xml:space="preserve" class=""><g><path fill-rule="evenodd" d="M309.288 314.699a7.999 7.999 0 0 0 14.146 1.053l19.383-31.235 36.012 7.375a8.002 8.002 0 0 0 8.954-11.002l-26.745-62.096c.818-.347 1.655-.704 2.537-1.081 13.792-5.906 21.861-19.884 20.081-34.781-.331-2.767-.64-5.229-.917-7.439-1.111-8.865-1.67-13.315-1.07-16.715s2.646-7.391 6.723-15.341c1.017-1.983 2.149-4.19 3.406-6.678 6.769-13.39 3.966-29.285-6.974-39.551-2.031-1.907-3.851-3.594-5.483-5.11-6.551-6.076-9.839-9.126-11.564-12.116-1.727-2.99-2.724-7.362-4.711-16.072-.496-2.172-1.048-4.592-1.684-7.306-3.422-14.608-15.786-24.982-30.766-25.815-2.782-.155-5.26-.278-7.485-.389-8.924-.444-13.403-.667-16.647-1.848s-6.818-3.889-13.94-9.285a1216.31 1216.31 0 0 0-5.984-4.514c-12.012-8.99-28.15-8.991-40.162 0a1216.31 1216.31 0 0 0-5.984 4.514c-7.122 5.396-10.696 8.104-13.94 9.285s-7.724 1.404-16.647 1.848c-2.226.111-4.703.234-7.485.389-14.98.833-27.345 11.208-30.766 25.815-.636 2.714-1.188 5.133-1.684 7.306-1.987 8.71-2.984 13.083-4.711 16.072-1.726 2.99-5.014 6.04-11.564 12.116-1.633 1.516-3.452 3.203-5.483 5.11-10.939 10.267-13.743 26.162-6.975 39.552 1.257 2.486 2.389 4.693 3.405 6.675 4.077 7.951 6.124 11.942 6.724 15.342.6 3.399.041 7.849-1.07 16.713-.277 2.211-.586 4.674-.917 7.442-1.78 14.897 6.289 28.875 20.081 34.781 2.562 1.097 4.848 2.061 6.901 2.926l1.794.757-32.807 70.464a8.003 8.003 0 0 0 .903 8.244 7.992 7.992 0 0 0 7.727 3.013l36.213-6.327 18.469 31.783a8 8 0 0 0 14.17-.643l32.649-70.129c5.238-1.574 8.413-2.367 11.08-2.367 3.452 0 7.738 1.322 16.276 3.957.988.305 2.034.628 3.131.964zm31.276-46.976a8.004 8.004 0 0 0-8.403 3.619l-14.241 22.95-13.596-31.569c9.332-1.295 17.873-6.524 23.333-14.874 1.525-2.333 2.871-4.417 4.08-6.289 4.847-7.506 7.279-11.273 9.924-13.493 1.187-.996 2.678-1.896 4.7-2.899l20.662 47.973zm-125.855 39.559L201.14 283.93a8.003 8.003 0 0 0-8.294-3.861l-26.606 4.648 25.978-55.796c2.321 2.306 4.719 6.016 8.996 12.64a1269.83 1269.83 0 0 0 4.08 6.288c6.75 10.323 18.203 15.884 30.043 15.126zm51.766-67.856c-5.444 0-10.89 1.559-20.994 4.677a1220.82 1220.82 0 0 1-7.077 2.167c-7.617 2.3-15.361-.514-19.72-7.178-1.507-2.303-2.836-4.362-4.029-6.21-11.473-17.766-12.675-18.774-32.164-26.987-2.027-.854-4.285-1.806-6.815-2.89-7.319-3.135-11.438-10.269-10.493-18.175.327-2.733.632-5.166.906-7.349 2.631-20.982 2.358-22.528-7.293-41.348a1239.715 1239.715 0 0 1-3.362-6.592c-3.592-7.106-2.161-15.218 3.645-20.667 2.007-1.883 3.803-3.549 5.416-5.046C180 89.445 180.784 88.086 185.488 67.469c.489-2.146 1.034-4.535 1.662-7.216 1.815-7.752 8.126-13.047 16.076-13.489 2.748-.153 5.195-.275 7.393-.384 21.122-1.052 22.598-1.589 39.454-14.36 1.754-1.329 3.707-2.809 5.91-4.458 6.375-4.771 14.611-4.771 20.986 0 2.203 1.649 4.156 3.129 5.91 4.458 16.856 12.771 18.332 13.308 39.454 14.36 2.197.109 4.645.231 7.393.384 7.95.442 14.26 5.737 16.076 13.489.628 2.68 1.173 5.069 1.662 7.215 4.704 20.617 5.488 21.977 20.993 36.359 1.613 1.497 3.409 3.163 5.416 5.046 5.806 5.449 7.235 13.561 3.644 20.667a1134.527 1134.527 0 0 1-3.364 6.595c-9.649 18.818-9.922 20.364-7.29 41.348.273 2.183.579 4.614.905 7.346.945 7.906-3.174 15.041-10.493 18.175-2.53 1.083-4.788 2.035-6.815 2.89-19.488 8.213-20.69 9.222-32.163 26.987a1151.845 1151.845 0 0 1-4.029 6.211c-4.357 6.663-12.095 9.482-19.72 7.178-2.634-.796-4.975-1.519-7.077-2.167-10.106-3.118-15.552-4.677-20.996-4.677zm79.397-103.902c0-43.78-35.617-79.397-79.397-79.397-43.779 0-79.396 35.617-79.396 79.397s35.617 79.398 79.396 79.398 79.397-35.617 79.397-79.398zm-79.398 63.398c-34.957 0-63.396-28.44-63.396-63.398 0-34.957 28.439-63.397 63.396-63.397s63.397 28.44 63.397 63.397c.001 34.958-28.44 63.398-63.397 63.398zm43.938-82.261-54.629 49.577a7.975 7.975 0 0 1-5.375 2.076 7.98 7.98 0 0 1-5.658-2.343l-22.492-22.492a8 8 0 1 1 11.314-11.313l17.103 17.103 48.985-44.455a8 8 0 0 1 10.752 11.847zm151.875 262.116c10.545-10.543 15.9-23.844 15.487-38.465l-3.896-137.533c-.384-13.581-13.886-25.75-28.445-25.75-.14 0-.279.001-.418.003-7.103.114-30.262 3.94-30.094 48.393l.285 74.709a35.511 35.511 0 0 1-.323 4.984 30.264 30.264 0 0 0-1.812-1.977c-9.874-9.873-26.044-9.998-36.814-.285-.268.241-.52.5-.752.775-12.051 14.248-26.858 26.728-38.757 36.755-4.173 3.517-8.113 6.838-11.349 9.754-13.569 12.23-15.38 29.081-15.362 43.951l.064 53.206-6.899-.059c-4.671-.043-9.073 1.746-12.413 5.028-3.34 3.283-5.202 7.661-5.242 12.326l-.179 20.812c-.04 4.665 1.746 9.074 5.029 12.414 3.282 3.34 7.66 5.201 12.325 5.241l108.116.929.153.001c4.608 0 8.957-1.783 12.26-5.03 3.34-3.283 5.201-7.66 5.241-12.325l.179-20.812c.04-4.665-1.746-9.074-5.029-12.414-3.282-3.34-7.66-5.201-12.325-5.241l-8.895-.076v-9.449zm-49.616 86.908-.179 20.812c-.004.502-.251.85-.458 1.053a1.425 1.425 0 0 1-1.06.44l-108.116-.929c-.501-.004-.849-.251-1.052-.458s-.444-.558-.439-1.06l.179-20.812c.004-.502.251-.85.458-1.053.204-.201.552-.44 1.045-.44h.015l108.116.929a1.524 1.524 0 0 1 1.491 1.518zm-86.57-18.249-.064-53.363c-.02-16.295 2.899-25.579 10.075-32.047 3.037-2.738 6.702-5.827 10.946-9.403 12.232-10.31 27.427-23.115 40.268-38.192 4.491-3.767 10.622-3.784 14.431.025 4.054 4.053 4.059 8.875.034 14.333-6.361 7.15-13.049 13.627-20.126 20.475-3.397 3.288-6.911 6.688-10.455 10.233a7.999 7.999 0 0 0 .001 11.313c1.562 1.562 3.608 2.343 5.656 2.343s4.096-.781 5.657-2.344c3.451-3.451 6.916-6.805 10.268-10.048 7.394-7.155 14.377-13.913 21.218-21.631.036-.041 5.358-6.551 5.358-6.551 8.011-9.862 11.883-20.495 11.838-32.504l-.285-74.71c-.075-19.801 5.424-32.191 14.35-32.334l.162-.001c5.941 0 12.31 5.195 12.451 10.203l3.896 137.533c.29 10.256-3.346 19.239-10.807 26.698l-62.208 62.208a8 8 0 0 0-2.343 5.656v12.626zm-16.859 25.431a6.468 6.468 0 1 1 12.019 4.78 6.468 6.468 0 0 1-12.019-4.78zm-88.031-20.599a17.403 17.403 0 0 0-12.414-5.028l-6.898.059.064-53.206c.018-14.871-1.793-31.722-15.362-43.951-3.234-2.917-7.176-6.237-11.348-9.753-11.898-10.028-26.706-22.508-38.757-36.756a7.85 7.85 0 0 0-.751-.775c-10.775-9.713-26.946-9.587-36.815.285a29.985 29.985 0 0 0-1.812 1.977 35.347 35.347 0 0 1-.323-4.983l.285-74.711c.168-44.453-22.991-48.278-30.094-48.393a29.02 29.02 0 0 0-.418-.003c-14.559 0-28.062 12.17-28.445 25.75l-3.896 137.534c-.413 14.621 4.942 27.921 15.486 38.464l59.865 59.866v9.449l-8.895.076c-4.665.04-9.043 1.901-12.325 5.241-3.283 3.34-5.069 7.749-5.029 12.414l.179 20.812c.04 4.665 1.901 9.042 5.241 12.325 3.303 3.247 7.651 5.03 12.26 5.03l.153-.001 108.116-.929c4.665-.04 9.043-1.901 12.325-5.241 3.283-3.34 5.069-7.749 5.029-12.414l-.179-20.812c-.039-4.665-1.902-9.043-5.242-12.326zm-95.633-16.94a7.998 7.998 0 0 0-2.343-5.656l-62.209-62.209c-7.46-7.459-11.096-16.441-10.806-26.697l3.896-137.534c.143-5.054 6.668-10.288 12.613-10.201 8.926.143 14.425 12.533 14.35 32.333l-.285 74.711c-.045 12.009 3.827 22.641 11.852 32.521l5.136 6.288c.035.043.173.205.209.246 6.841 7.718 13.824 14.476 21.218 21.631 3.352 3.244 6.816 6.597 10.268 10.048a7.975 7.975 0 0 0 5.657 2.344 7.972 7.972 0 0 0 5.656-2.343 7.999 7.999 0 0 0 .001-11.313c-3.544-3.544-7.058-6.945-10.455-10.233-7.077-6.849-13.765-13.325-20.126-20.475-4.024-5.457-4.02-10.279.034-14.332 3.811-3.81 9.94-3.793 14.432-.026 12.84 15.078 28.034 27.883 40.268 38.193 4.243 3.577 7.908 6.665 10.946 9.404 7.175 6.466 10.094 15.751 10.074 32.046l-.064 53.363-60.321.518zm84.615 51.276a1.475 1.475 0 0 1-1.052.458l-108.116.929a1.468 1.468 0 0 1-1.06-.44 1.473 1.473 0 0 1-.458-1.053l-.179-20.812c-.005-.502.236-.854.439-1.06s.551-.454 1.052-.458l108.115-.929h.015c.494 0 .842.239 1.046.44.207.203.454.551.458 1.053l.179 20.812c.005.502-.236.853-.439 1.06zm-7.435-13.737a6.467 6.467 0 1 1-12.018 4.78 6.467 6.467 0 0 1 12.018-4.78z" clip-rule="evenodd" fill="#25bdc7" opacity="1" data-original="#000000" class=""></path></g></svg>