<svg xmlns="http://www.w3.org/2000/svg" version="1.1" xmlns:xlink="http://www.w3.org/1999/xlink" width="512" height="512" x="0" y="0" viewBox="0 0 24 24" style="enable-background:new 0 0 512 512" xml:space="preserve" class=""><g><path d="M4.65 20.46c-.24 0-.47-.09-.66-.26a.966.966 0 0 1-.22-1.2c.35-.67.6-1.38.74-2.11.22-1.09.2-2.2-.05-3.31-.08-.35-.31-.67-.62-.87A4.978 4.978 0 0 1 1.5 8.48c0-1.29.55-2.57 1.5-3.52s2.19-1.48 3.49-1.48c1.35 0 2.67.59 3.62 1.62a5.257 5.257 0 0 1 1.38 3.92c-.1 1.74-.64 5.14-3.11 8.27-.9 1.14-1.96 2.14-3.17 2.97-.18.12-.37.18-.57.18zM6.49 4.5c-1.03 0-2.02.42-2.78 1.18-.77.77-1.21 1.79-1.21 2.82 0 1.38.7 2.64 1.87 3.38.54.34.93.88 1.07 1.49.28 1.25.3 2.5.06 3.72-.16.82-.45 1.62-.84 2.38a13.69 13.69 0 0 0 2.95-2.78c2.29-2.92 2.8-6.09 2.89-7.72.09-1.16-.32-2.32-1.11-3.17-.76-.82-1.82-1.3-2.89-1.3z" fill="#25bdc7" opacity="1" data-original="#000000" class=""></path><path d="M9 9c-.28 0-.5-.22-.5-.5 0-1.1-.9-2-2-2-.28 0-.5-.22-.5-.5s.22-.5.5-.5c1.65 0 3 1.35 3 3 0 .28-.22.5-.5.5zM15.65 20.46c-.24 0-.47-.09-.66-.26a.966.966 0 0 1-.22-1.2c.35-.67.6-1.38.74-2.11.22-1.09.2-2.2-.05-3.31-.08-.35-.31-.67-.62-.87a4.978 4.978 0 0 1-2.34-4.23c0-1.29.55-2.57 1.5-3.52s2.19-1.48 3.49-1.48c1.35 0 2.67.59 3.62 1.62a5.257 5.257 0 0 1 1.38 3.92c-.1 1.74-.64 5.14-3.11 8.27-.9 1.14-1.96 2.14-3.17 2.97-.18.12-.37.18-.57.18zM17.49 4.5c-1.03 0-2.02.42-2.78 1.18-.77.77-1.21 1.79-1.21 2.82 0 1.38.7 2.64 1.87 3.38.54.34.93.88 1.07 1.49.28 1.25.3 2.5.06 3.72-.16.82-.45 1.62-.84 2.38a13.69 13.69 0 0 0 2.95-2.78c2.29-2.92 2.8-6.09 2.89-7.72.09-1.16-.32-2.32-1.11-3.17-.76-.82-1.82-1.3-2.89-1.3z" fill="#25bdc7" opacity="1" data-original="#000000" class=""></path><path d="M20 9c-.28 0-.5-.22-.5-.5 0-1.1-.9-2-2-2-.28 0-.5-.22-.5-.5s.22-.5.5-.5c1.65 0 3 1.35 3 3 0 .28-.22.5-.5.5z" fill="#25bdc7" opacity="1" data-original="#000000" class=""></path></g></svg>