<svg xmlns="http://www.w3.org/2000/svg" version="1.1" xmlns:xlink="http://www.w3.org/1999/xlink" width="512" height="512" x="0" y="0" viewBox="0 0 512 512" style="enable-background:new 0 0 512 512" xml:space="preserve" class=""><g><path d="M337.469 391.84a61.566 61.566 0 0 0-10.219-.852h-32.71v-20.867c18.839-12.574 31.276-34.016 31.276-58.316V274.27c0-12.93-3.55-25.567-10.27-36.54l-12.804 7.84a54.934 54.934 0 0 1 8.063 28.7v7.87l-1.973-3.644a34.288 34.288 0 0 0-30.187-17.992h-45.793a34.288 34.288 0 0 0-30.188 17.992l-1.969 3.645v-7.871c0-30.36 24.696-55.055 55.055-55.055 14.645 0 28.43 5.687 38.812 16.012l10.586-10.649c-13.214-13.14-30.757-20.379-49.398-20.379-38.637 0-70.07 31.434-70.07 70.07v37.536c0 24.3 12.441 45.746 31.28 58.316v20.867h-32.71c-33.707 0-61.129 27.422-61.129 61.133V512h15.016v-59.879c0-25.43 20.683-46.117 46.113-46.117h33.29c3.148 18.246 19.077 32.176 38.21 32.176s35.063-13.93 38.21-32.176h33.29c2.594 0 5.191.215 7.727.644zm-57.946 7.55c0 13.11-10.664 23.774-23.773 23.774s-23.773-10.664-23.773-23.773v-21.676c7.425 2.687 15.43 4.156 23.773 4.156s16.348-1.469 23.773-4.156zm-23.773-32.53c-29.75 0-54.047-23.723-55.008-53.239l15.133-27.98a19.283 19.283 0 0 1 16.977-10.121h45.793a19.285 19.285 0 0 1 16.98 10.12l15.133 27.977c-.965 29.52-25.262 53.242-55.008 53.242zM353.734 397.012l-6.511 13.527c15.882 7.645 26.14 23.969 26.14 41.582V512h15.016v-59.879c0-23.348-13.598-44.976-34.645-55.11zM328.32 475.965h15.016V512H328.32zm0 0" fill="#25bdc7" opacity="1" data-original="#000000" class=""></path><path d="M168.164 475.965h15.016V512h-15.016zM132.973 70.758l-17.36-35.168-17.36 35.168-38.812 5.64 28.086 27.38-6.629 38.656 34.715-18.25 34.715 18.25-6.629-38.657 28.086-27.379zm-2.586 44.23-14.774-7.77-14.773 7.77 2.82-16.453-11.953-11.652 16.52-2.399 7.386-14.968L123 84.484l16.52 2.399-11.954 11.652zM278.113 70.758l-17.36-35.172-17.355 35.172-38.816 5.64 28.086 27.38-6.629 38.656 34.715-18.25 34.719 18.25-6.633-38.66 28.086-27.376zm-2.582 44.23-14.777-7.77-14.774 7.77 2.82-16.453-11.952-11.652 16.52-2.399 7.386-14.968 7.387 14.968 16.52 2.399-11.954 11.652zM395.887 35.586l-17.36 35.172-38.812 5.64 28.086 27.375-6.63 38.66 34.716-18.25 34.718 18.25-6.632-38.66 28.086-27.375-38.813-5.64zm14.773 79.402-14.773-7.77-14.778 7.77 2.825-16.453-11.954-11.652 16.52-2.399 7.387-14.968 7.386 14.968 16.52 2.399-11.953 11.652zm0 0" fill="#25bdc7" opacity="1" data-original="#000000" class=""></path><path d="M483.973 0H391.78v15.016h92.192c6.898 0 12.511 5.613 12.511 12.511v130.125c0 6.903-5.613 12.516-12.511 12.516H143.14v53.074l-75.196-53.074H27.527c-6.898 0-12.511-5.613-12.511-12.516v-65.39H0v65.39c0 15.18 12.348 27.528 27.527 27.528h35.657l94.972 67.043V185.18h325.817c15.18 0 27.527-12.348 27.527-27.528V27.527C511.5 12.347 499.152 0 483.973 0zm0 0" fill="#25bdc7" opacity="1" data-original="#000000" class=""></path><path d="M15.016 27.527c0-6.898 5.613-12.511 12.511-12.511H376.77V0H27.527C12.347 0 0 12.348 0 27.527v49.72h15.016zM153.148 452.121h15.016c0-8.871 7.215-16.09 16.086-16.09V421.02c-17.148 0-31.102 13.953-31.102 31.101zM480.469 67.566V30.031h-37.535v15.012h22.52v22.523zM30.031 116.613v37.54h37.535v-15.016H45.043v-22.524zM218.215 478.469h15.012v15.011h-15.012zM248.242 478.469h15.016v15.011h-15.016zM278.273 478.469h15.012v15.011h-15.012zm0 0" fill="#25bdc7" opacity="1" data-original="#000000" class=""></path></g></svg>