<svg xmlns="http://www.w3.org/2000/svg" version="1.1" xmlns:xlink="http://www.w3.org/1999/xlink" width="512" height="512" x="0" y="0" viewBox="0 0 512 512" style="enable-background:new 0 0 512 512" xml:space="preserve" class=""><g><g data-name="Out line"><path d="M492.438 385.344 448 355.719v-26.997l15.871-87.291A8 8 0 0 0 456 232h-32a8 8 0 0 0-6.946 4.031l-31.242 54.675L349.193 320H138.422l-45.984-30.656A8.002 8.002 0 0 0 88 288H56a8 8 0 0 0-7.59 10.53l12.193 36.578-30.36 18.217a32.001 32.001 0 0 0-6.165 50.068l16.892 16.891A39.742 39.742 0 0 0 69.255 432H160a40.046 40.046 0 0 0 40 40h28.223a160.367 160.367 0 0 0 71.355-16.845A8 8 0 0 0 304 448v-10.233l29.47 9.823a8.02 8.02 0 0 0 2.53.41h64a8 8 0 0 0 3.383-15.249L353.58 409.51l48.455-22.802 35.23 12.81A8.011 8.011 0 0 0 440 400h48a8 8 0 0 0 4.438-14.656Zm-95.44-83.097a8.008 8.008 0 0 0 1.948-2.278L428.643 248h17.771l-13.09 72h-58.517ZM67.1 304h18.478l24 16H96.863a40.017 40.017 0 0 0-20.58 5.7l-1.625.975ZM176 432a24 24 0 1 1 24 24 24.027 24.027 0 0 1-24-24Zm112 10.96a144.483 144.483 0 0 1-55.981 12.988 39.9 39.9 0 0 0 4.267-40.753L288 432.433ZM337.298 432l-120-40h60.928l85.713 40Zm-2.584-31.294-51.331-23.955A7.985 7.985 0 0 0 280 376H168a8 8 0 0 0-2.53 15.59l15.58 5.193A40.253 40.253 0 0 0 163.35 416H69.255a23.839 23.839 0 0 1-16.97-7.03l-16.892-16.892A15.99 15.99 0 0 1 37.07 368H88v-16H63.55l20.966-12.58A24.007 24.007 0 0 1 96.863 336H432v16h-80a8 8 0 0 0-2.734 15.519l31.573 11.48ZM441.409 384l-44-16h40.17l24 16Z" fill="#25bdc7" opacity="1" data-original="#000000" class=""></path><circle cx="176" cy="360" r="8" fill="#25bdc7" opacity="1" data-original="#000000" class=""></circle><circle cx="144" cy="360" r="8" fill="#25bdc7" opacity="1" data-original="#000000" class=""></circle><circle cx="208" cy="360" r="8" fill="#25bdc7" opacity="1" data-original="#000000" class=""></circle><circle cx="240" cy="360" r="8" fill="#25bdc7" opacity="1" data-original="#000000" class=""></circle><circle cx="272" cy="360" r="8" fill="#25bdc7" opacity="1" data-original="#000000" class=""></circle><circle cx="304" cy="360" r="8" fill="#25bdc7" opacity="1" data-original="#000000" class=""></circle><path d="M136 264h35.47l21.67 36.116a8.001 8.001 0 0 0 13.72 0L228.53 264H264a40.046 40.046 0 0 0 40-40V80a40.046 40.046 0 0 0-40-40H136a40.046 40.046 0 0 0-40 40v144a40.046 40.046 0 0 0 40 40ZM112 80a24.027 24.027 0 0 1 24-24h128a24.027 24.027 0 0 1 24 24v144a24.027 24.027 0 0 1-24 24h-40a8.002 8.002 0 0 0-6.86 3.884L200 280.45l-17.14-28.567A8.002 8.002 0 0 0 176 248h-40a24.027 24.027 0 0 1-24-24Z" fill="#25bdc7" opacity="1" data-original="#000000" class=""></path><path d="m167.8 216.398 28.622 14.312a8 8 0 0 0 7.156 0l28.622-14.312A71.608 71.608 0 0 0 272 152V80a8 8 0 0 0-12.8-6.4 45.567 45.567 0 0 1-54.4 0 8.001 8.001 0 0 0-9.6 0 45.567 45.567 0 0 1-54.4 0A8 8 0 0 0 128 80v72a71.608 71.608 0 0 0 39.8 64.398ZM200 89.653a61.204 61.204 0 0 0 24 8.42V152a23.866 23.866 0 0 1-13.268 21.466L200 178.833l-10.733-5.367A23.867 23.867 0 0 1 176 152V98.072a61.204 61.204 0 0 0 24-8.419Zm-56 4.098a61.443 61.443 0 0 0 16 4.295V152a39.78 39.78 0 0 0 22.111 35.776l14.31 7.157a8 8 0 0 0 7.157 0l14.31-7.157A39.779 39.779 0 0 0 240 152V98.046a61.441 61.441 0 0 0 16-4.295V152a55.693 55.693 0 0 1-30.956 50.088L200 214.61l-25.044-12.522A55.693 55.693 0 0 1 144 152Z" fill="#25bdc7" opacity="1" data-original="#000000" class=""></path></g></g></svg>