<svg xmlns="http://www.w3.org/2000/svg" version="1.1" xmlns:xlink="http://www.w3.org/1999/xlink" width="512" height="512" x="0" y="0" viewBox="0 0 512 512" style="enable-background:new 0 0 512 512" xml:space="preserve" class=""><g><path d="M256 32a227.453 227.453 0 0 1 23.182 1.185l1.636-15.916a242.89 242.89 0 0 0-66.188 2.285l2.74 15.763A226.2 226.2 0 0 1 256 32zM124.695 74.499l-9.39-12.955A239.693 239.693 0 0 0 16 256a237.607 237.607 0 0 0 24.832 106.43l14.336-7.104A221.757 221.757 0 0 1 32 256a223.689 223.689 0 0 1 92.695-181.501zM263.73 479.87l.54 15.99a239.561 239.561 0 0 0 66.211-11.644l-4.962-15.211a223.58 223.58 0 0 1-61.79 10.864zM112 248h16v184h-16zM160 248h16v184h-16zM208 248h16v184h-16z" fill="#25bdc7" opacity="1" data-original="#000000" class=""></path><path d="M491.468 263.72 347.28 194.364a24.028 24.028 0 0 0-32.031 11.226L272 295.502V216a40.046 40.046 0 0 0-40-40h-32V48a32 32 0 0 0-64 0v128h-32a40.046 40.046 0 0 0-40 40v208a40.067 40.067 0 0 0 26.37 37.605A24.002 24.002 0 1 0 134.624 464h66.752a23.999 23.999 0 1 0 44.254-2.395 40.148 40.148 0 0 0 25.367-28.736l112.97 54.34a7.993 7.993 0 0 0 10.677-3.741l100.565-209.07a8 8 0 0 0-3.741-10.677zM336.89 207.994a7.95 7.95 0 0 1 3.455.79l136.977 65.888-6.936 14.419-136.977-65.888a8.01 8.01 0 0 1-3.745-10.67l.003-.008a8.012 8.012 0 0 1 7.223-4.53zM152 48a16 16 0 0 1 32 0v128h-32zm-32 424a8 8 0 1 1-8-8 8.01 8.01 0 0 1 8 8zm104 8a8 8 0 1 1 8-8 8.01 8.01 0 0 1-8 8zm8-32H104a24.027 24.027 0 0 1-24-24V216a24.027 24.027 0 0 1 24-24h32v40h16v-40h32v40h16v-40h32a24.027 24.027 0 0 1 24 24v112.766l-27.445 57.056a24 24 0 0 0 11.225 32.032l16.159 7.772A24.027 24.027 0 0 1 232 448zm151.693 21.323-136.978-65.887a8 8 0 0 1-3.74-10.678l76.887-159.846a23.883 23.883 0 0 0 6.613 4.708l136.977 65.888z" fill="#25bdc7" opacity="1" data-original="#000000" class=""></path><path d="M384.423 283.249a55.998 55.998 0 1 0 26.19 74.74 56.063 56.063 0 0 0-26.19-74.74zm14.514 60.247-14.343-6.9A77.752 77.752 0 0 0 389.24 309l-.043-2.772a40.141 40.141 0 0 1 9.74 37.268zm-49.733 15.722-2.108 1.632-.04-2.665a61.722 61.722 0 0 1 3.163-20.37l12.924 6.217a61.727 61.727 0 0 1-13.94 15.186zm7.95-35.82a61.723 61.723 0 0 1 13.94-15.187l2.107-1.632.04 2.665a61.725 61.725 0 0 1-3.163 20.37zm3.058-29.681c1.088 0 2.18.06 3.272.15l-2.186 1.692a77.76 77.76 0 0 0-18.66 20.856l-14.327-6.892a40.132 40.132 0 0 1 31.9-15.806zm-38.858 30.214 14.348 6.902a77.75 77.75 0 0 0-4.645 27.596l.043 2.799a40.082 40.082 0 0 1-9.746-37.297zm35.453 49.636 2.192-1.697a77.758 77.758 0 0 0 18.66-20.855l14.343 6.899a40.142 40.142 0 0 1-35.195 15.653zM282.277 402.758l6.927-14.415 72.08 34.64-6.927 14.415zM361.657 126.343a25.002 25.002 0 0 0-35.314 0 8.981 8.981 0 0 1-12.686 0l-2-2a56.15 56.15 0 0 0-79.314 0 22.962 22.962 0 0 1-16.343 6.77v16a38.858 38.858 0 0 0 27.657-11.456 40.128 40.128 0 0 1 56.686 0l2 2a25.002 25.002 0 0 0 35.314 0 8.978 8.978 0 0 1 12.686 0l14.745 14.745a161.34 161.34 0 0 0 107.814 47.438 223.526 223.526 0 0 1 6.574 40.704l15.962-1.088a237.755 237.755 0 0 0-24.85-91.047l-14.297 7.182a223.084 223.084 0 0 1 11.718 27.92 145.404 145.404 0 0 1-91.607-42.423z" fill="#25bdc7" opacity="1" data-original="#000000" class=""></path><path d="m291.829 54.826 133.25 81.43a23.93 23.93 0 0 0 29.485-3.507l31.093-31.092a8 8 0 0 0 0-11.314l-16-16a8.001 8.001 0 0 0-10.094-1L440 86.386l-36.526-24.35L422.4 36.8a8 8 0 0 0-.743-10.457l-8-8a8 8 0 0 0-9.235-1.498L360.35 38.88l-14.81-8.887a39.942 39.942 0 0 0-48.864 6.016l-6.333 6.333a8 8 0 0 0 1.486 12.483zm45.48-11.111 18.575 11.145a8.002 8.002 0 0 0 7.694.295l40.089-20.045L385.6 59.2a8 8 0 0 0 1.963 11.456l48 32a8.001 8.001 0 0 0 8.875 0l18.543-12.362L468.686 96l-25.436 25.436a7.976 7.976 0 0 1-9.828 1.168L308.868 46.488a23.961 23.961 0 0 1 28.44-2.773z" fill="#25bdc7" opacity="1" data-original="#000000" class=""></path></g></svg>