<svg xmlns="http://www.w3.org/2000/svg" version="1.1" xmlns:xlink="http://www.w3.org/1999/xlink" width="512" height="512" x="0" y="0" viewBox="0 0 512 512" style="enable-background:new 0 0 512 512" xml:space="preserve" class=""><g><path d="M376.507 208.311a7.998 7.998 0 0 0-5.48 9.897 179.681 179.681 0 0 1 5.752 28.711 8.002 8.002 0 0 0 8.872 7.02 8.001 8.001 0 0 0 7.02-8.873 195.82 195.82 0 0 0-6.267-31.276 7.998 7.998 0 0 0-9.897-5.479zM339.663 156.939a7.983 7.983 0 0 0 6.298 3.06 8 8 0 0 0 6.287-12.94C314.797 99.358 258.576 72 198 72c-3.558 0-7.155.097-10.693.287a8 8 0 0 0-7.558 8.42c.238 4.411 4.013 7.786 8.418 7.558.607-.033 1.222-.047 1.832-.074V152a8 8 0 0 0 16 0V88.634c25.791 4.087 49.693 27.832 66.51 66.553a8 8 0 0 0 10.524 4.152 8 8 0 0 0 4.151-10.525c-9.497-21.866-21.267-39.54-34.552-52.407 33.995 10.767 64.284 31.559 87.031 60.532zM198 464c16.139 0 32.19-1.968 47.705-5.848a8 8 0 0 0 5.82-9.702c-1.073-4.287-5.414-6.896-9.702-5.82-11.681 2.922-23.698 4.642-35.822 5.174V360h20a8 8 0 0 0 0-16h-20V216a8 8 0 0 0-16 0v128H111.06c-5.93-23.508-9.059-49.296-9.059-76 0-17.259 1.322-34.333 3.93-50.744a7.999 7.999 0 0 0-6.645-9.156 7.998 7.998 0 0 0-9.156 6.645C87.389 231.986 86 249.903 86 268c0 26.526 2.966 52.262 8.603 76H34.857C24.051 320.898 18 295.144 18 268c0-33.661 9.346-66.483 27.029-94.917a8 8 0 0 0-2.569-11.018 7.997 7.997 0 0 0-11.018 2.569C12.181 195.606 2 231.349 2 268c0 108.075 87.925 196 196 196zm-8-104v87.354c-21.796-3.462-42.338-21.004-58.539-50.29-6.209-11.223-11.499-23.68-15.817-37.064zm-91.103 0c4.891 16.247 11.109 31.334 18.563 44.808 7.686 13.895 16.368 25.504 25.784 34.667C101.09 425.983 65.65 397.35 43.347 360zM296.715 208.099a7.999 7.999 0 0 0-6.645 9.156C292.677 233.671 294 250.743 294 268a8 8 0 0 0 16 0c0-18.095-1.389-36.012-4.129-53.256-.692-4.363-4.789-7.346-9.156-6.645zM484 308h-42v-28c0-11.028-8.972-20-20-20h-84c-11.028 0-20 8.972-20 20v28h-42c-14.337 0-26 11.664-26 26v54c0 8.183 4.945 15.225 12 18.319V488c0 13.233 10.766 24 24 24h188c13.234 0 24-10.767 24-24v-81.681c7.055-3.094 12-10.135 12-18.319v-54c0-14.336-11.663-26-26-26zm-150-28c0-2.205 1.795-4 4-4h84c2.205 0 4 1.795 4 4v28h-92zm-68 54c0-5.514 4.486-10 10-10h208c5.514 0 10 4.486 10 10v54c0 2.205-1.795 4-4 4H270c-2.205 0-4-1.795-4-4zm88 74h52v16h-52zm120 88H286c-4.411 0-8-3.589-8-8v-80h60v16c0 8.823 7.177 16 16 16h52c8.823 0 16-7.177 16-16v-16h60v80c0 4.411-3.589 8-8 8z" fill="#25bdc7" opacity="1" data-original="#000000" class=""></path><path d="M94 0C54.299 0 22 32.299 22 72c0 27.478 17.38 57.913 31.96 78.607 9.409 13.355 18.107 23.306 22.455 28.049C88.647 192 91.247 192 94 192s5.353 0 17.585-13.344c4.348-4.743 13.046-14.694 22.455-28.049C148.62 129.913 166 99.478 166 72c0-39.701-32.299-72-72-72zm0 173.865C80.516 160.733 38 110.444 38 72c0-30.878 25.122-56 56-56s56 25.122 56 56c0 38.444-42.516 88.733-56 101.865z" fill="#25bdc7" opacity="1" data-original="#000000" class=""></path><path d="M94 36c-19.85 0-36 16.15-36 36s16.15 36 36 36 36-16.15 36-36-16.15-36-36-36zm0 56c-11.028 0-20-8.972-20-20s8.972-20 20-20 20 8.972 20 20-8.972 20-20 20zM474 292a8 8 0 0 0 8-8v-60c0-26.468-21.533-48-48-48H142a8 8 0 0 0 0 16h292c17.645 0 32 14.355 32 32v60a8 8 0 0 0 8 8z" fill="#25bdc7" opacity="1" data-original="#000000" class=""></path></g></svg>