<svg xmlns="http://www.w3.org/2000/svg" version="1.1" xmlns:xlink="http://www.w3.org/1999/xlink" width="512" height="512" x="0" y="0" viewBox="0 0 512.002 512.002" style="enable-background:new 0 0 512 512" xml:space="preserve" class=""><g><path d="M20.429 184.236c-5.344-1.394-10.806 1.807-12.201 7.15-.128.49-.254.982-.378 1.474-1.358 5.353 1.881 10.793 7.234 12.152.825.209 1.652.309 2.466.309 4.467 0 8.537-3.015 9.686-7.543l.344-1.341c1.395-5.345-1.807-10.807-7.151-12.201zM338.385 13.549C311.922 4.56 284.204.001 256.001.001c-49.493 0-97.521 14.149-138.892 40.918-40.288 26.068-72.374 62.737-92.79 106.043-2.354 4.996-.214 10.955 4.782 13.309a9.955 9.955 0 0 0 4.257.957 10 10 0 0 0 9.052-5.737c18.099-38.393 46.001-70.445 79.849-93.722.33.17.67.327 1.025.462l61.101 23.245a3.57 3.57 0 0 1 2.299 3.467 10.029 10.029 0 0 0 .548 3.643 34.675 34.675 0 0 0 48.566 19.475l.111-.058 13.276-7.014c14.764-7.8 31.805-6.827 45.584 2.608 13.781 9.435 20.856 24.971 18.924 41.562l-.123 1.053c-.749 6.432-5.188 11.521-11.31 12.966a8056.155 8056.155 0 0 0-20.595 4.899c-13.077 3.127-23.247 13.663-25.909 26.843l-8.582 42.489a34.613 34.613 0 0 0 6.762 28.336 34.615 34.615 0 0 0 25.98 13.181l11.013.396c1.895.068 3.732.496 5.463 1.27a9.963 9.963 0 0 0 4.076.874 10.005 10.005 0 0 0 9.135-5.921c2.254-5.042-.005-10.957-5.047-13.211a34.52 34.52 0 0 0-12.907-2.998l-11.013-.396a14.65 14.65 0 0 1-10.996-5.579 14.65 14.65 0 0 1-2.861-11.992l8.582-42.489a14.702 14.702 0 0 1 10.956-11.351 8218.065 8218.065 0 0 1 20.54-4.886c14.191-3.35 24.873-15.453 26.581-30.119l.123-1.053c2.806-24.1-7.472-46.67-27.492-60.377-20.019-13.705-44.776-15.122-66.226-3.788l-13.214 6.981c-3.824 1.942-8.122 2.133-12.104.534-3.566-1.43-6.324-4.069-7.884-7.51a23.564 23.564 0 0 0-15.142-20.527l-47.766-18.172c33.931-18.398 72.417-28.61 112.268-28.61 26.01 0 51.563 4.2 75.95 12.485a10 10 0 0 0 12.686-6.252c1.776-5.229-1.023-10.909-6.252-12.686zM502.059 185.122c-1.526-5.308-7.067-8.374-12.373-6.847-5.308 1.526-8.373 7.066-6.847 12.374 6.08 21.144 9.163 43.131 9.163 65.352 0 24.196-3.646 48.053-10.834 70.906-1.657 5.269 1.27 10.883 6.538 12.54a10 10 0 0 0 3.004.464c4.25 0 8.193-2.732 9.536-7.002 7.8-24.799 11.755-50.674 11.755-76.908 0-24.091-3.345-47.938-9.942-70.879zM474.108 370.539c-4.219-2.499-10.541-1.793-13.819 3.708a8.328 8.328 0 0 0-.057.097c-3.217 5.538-.762 11.407 3.47 13.881 1.5.877 3.261 1.351 5.056 1.351 3.269 0 6.646-1.571 8.743-5.136 3.248-5.521.825-11.403-3.393-13.901zM446.029 412.553c-4.115-3.683-10.437-3.334-14.121.782a235.902 235.902 0 0 1-45.948 39.612c-11.532-5.207-23.613-17.552-22.43-36.899l6.31-74.748c.465-5.503-3.62-10.341-9.123-10.806-5.5-.447-10.341 3.62-10.806 9.124l-6.319 74.857-.016.208c-1.258 19.841 7.57 38.318 22.852 49.829-33.693 17.837-71.563 27.489-110.427 27.489a236.64 236.64 0 0 1-32.444-2.244l9.327-16.936h8.159c21.188 0 38.425-17.237 38.425-38.425v-13.803c0-3.935 1.227-7.694 3.549-10.871 3.259-4.459 2.286-10.716-2.173-13.975-4.46-3.258-10.716-2.286-13.974 2.174a38.18 38.18 0 0 0-7.401 22.672v13.803c0 10.159-8.265 18.425-18.425 18.425h-14.068a9.998 9.998 0 0 0-8.759 5.176l-15.39 27.945c-21.584-4.975-42.421-12.96-61.776-23.777-4.824-2.692-10.914-.97-13.608 3.852-2.694 4.822-.97 10.913 3.851 13.607 37.905 21.182 81.028 32.378 124.708 32.378 72.726 0 142.273-31.101 190.809-85.328 3.683-4.116 3.333-10.438-.782-14.121zM428.168 42.884c-23.229 0-42.127 18.898-42.127 42.127s18.898 42.128 42.127 42.128 42.127-18.898 42.127-42.128c0-23.229-18.898-42.127-42.127-42.127zm0 64.255c-12.201 0-22.127-9.927-22.127-22.128s9.926-22.127 22.127-22.127 22.127 9.926 22.127 22.127-9.926 22.128-22.127 22.128z" fill="#25bdc7" opacity="1" data-original="#000000"></path><path d="m244.205 339.941-43.781-63.096a9.98 9.98 0 0 0-1.554-1.745c-11.15-43.644-50.8-76.01-97.869-76.01-55.691 0-101 45.309-101 101 0 23.066 7.977 45.606 22.467 63.507l.071.093 70.578 90.463a9.998 9.998 0 0 0 15.766.002l70.241-89.989c.141-.18.273-.362.399-.548 11.782-14.55 19.256-32.143 21.646-50.617l26.604 38.342a9.988 9.988 0 0 0 8.225 4.3 9.954 9.954 0 0 0 5.692-1.785c4.538-3.148 5.664-9.379 2.515-13.917zm-80.725 11.702a9.714 9.714 0 0 0-.697.956l-61.779 79.147-62.498-80.105a9.992 9.992 0 0 0-.324-.42c-11.724-14.385-18.181-32.543-18.181-51.131 0-44.663 36.336-81 81-81s81 36.337 81 81c0 18.788-6.578 37.097-18.521 51.553z" fill="#25bdc7" opacity="1" data-original="#000000"></path><path d="M101.001 243.542c-31.981 0-58 26.019-58 58s26.019 58 58 58 58-26.019 58-58-26.018-58-58-58zm0 96c-20.953 0-38-17.047-38-38s17.047-38 38-38 38 17.047 38 38-17.046 38-38 38zM428.168 0c-46.226 0-83.833 37.607-83.833 83.833 0 19.134 6.613 37.832 18.627 52.687l.058.075 57.264 73.397a9.998 9.998 0 0 0 7.883 3.849h.001a10 10 0 0 0 7.883-3.847l56.991-73.013c.123-.157.24-.316.352-.479 12.005-14.857 18.607-33.525 18.607-52.669C512.001 37.607 474.394 0 428.168 0zm49.238 124.459a9.83 9.83 0 0 0-.651.883l-48.585 62.244-49.199-63.061a9.07 9.07 0 0 0-.31-.399c-9.238-11.335-14.326-25.645-14.326-40.293C364.335 48.636 392.97 20 428.168 20s63.833 28.636 63.833 63.833c0 14.806-5.183 29.233-14.595 40.626zM203.259 417.295c-2.36-4.993-8.32-7.126-13.314-4.77l-4.521 2.136a10.001 10.001 0 0 0 8.543 18.083l4.521-2.136c4.994-2.359 7.129-8.319 4.771-13.313zM428.168 254.1c-5.523 0-10 4.478-10 10 0 1.29-.073 2.591-.217 3.865-.621 5.488 3.326 10.439 8.813 11.06.382.043.76.064 1.135.064 5.02 0 9.348-3.771 9.924-8.878a54.63 54.63 0 0 0 .344-6.111c.001-5.523-4.476-10-9.999-10zM363.258 298.001h-5c-5.523 0-10 4.478-10 10s4.477 10 10 10h5c5.523 0 10-4.478 10-10s-4.477-10-10-10zM415.616 296.418c-2.872-4.716-9.024-6.21-13.742-3.341a34.065 34.065 0 0 1-3.406 1.817c-5.012 2.319-7.195 8.264-4.875 13.275a10.002 10.002 0 0 0 9.082 5.802 9.968 9.968 0 0 0 4.194-.927 54.23 54.23 0 0 0 5.406-2.884c4.717-2.872 6.213-9.024 3.341-13.742zM264.868 356.449c-4.659-2.963-10.84-1.586-13.803 3.074l-2.683 4.22c-2.963 4.661-1.587 10.841 3.074 13.805a9.949 9.949 0 0 0 5.355 1.562 9.991 9.991 0 0 0 8.448-4.636l2.683-4.22c2.963-4.661 1.587-10.841-3.074-13.805zM289.011 318.475c-4.66-2.962-10.84-1.587-13.804 3.073l-2.682 4.219c-2.963 4.661-1.587 10.841 3.074 13.804a9.993 9.993 0 0 0 13.804-3.073l2.682-4.219c2.962-4.662 1.586-10.841-3.074-13.804zM243.948 398.075c-2.361-4.994-8.321-7.128-13.314-4.77l-4.521 2.136a10.001 10.001 0 0 0 8.543 18.083l4.521-2.136c4.994-2.359 7.129-8.319 4.771-13.313zM318.258 298.001h-5c-5.523 0-10 4.478-10 10s4.477 10 10 10h5c5.523 0 10-4.478 10-10s-4.477-10-10-10z" fill="#25bdc7" opacity="1" data-original="#000000"></path></g></svg>